<svg xmlns="http://www.w3.org/2000/svg" viewBox="0 0 696.48 459.22"><defs><style>.cls-1{fill:#37426d;}.cls-2{font-size:222.11px;fill:#ad5817;font-family:Herculanum;}</style></defs><g id="Laag_2" data-name="Laag 2"><path class="cls-1" d="M732,501.32c-13.36-.15-23.07-8.25-28.31-10.9s-6.37-34.61-4.46-41.09-3.52-28.33-3.65-28.86h0c-.16-.42-9.18-23.07-4.61-33.72s.16-22.24.16-22.24c.4-6.4-23.21-34.93-31-44.12a6,6,0,0,1-1-6.31c2.35-5.51,6.87-15.69,8.26-15.69,1.91,0,13.36,16.64,14.32,17.08s0,12.25-.15,13.77a.31.31,0,0,0,.09.26,11.36,11.36,0,0,1,1.67,2.68,6.4,6.4,0,0,1-1,6.54c-1,1.38-1.3,3.63,1.4,7.09,4.09,5.23,11.09,4.07,14.26,3.19a7.07,7.07,0,0,0,3-1.7c2.12-2,5.83-6.56,4.67-13-1.55-8.64-10.4-23.47-10.8-24.13,0,0,0,0,0,0-.24-.87-6.46-22.83-11.76-31.49a37.37,37.37,0,0,1-5.27-15,5.94,5.94,0,0,1,.73-3.56,45,45,0,0,1,5-7.51c2.71-3,2.87-28.13,2.87-28.13s-.48-3.24,7.31-13.69-5.54-31.48-5.56-31.52h0c-.06-.08-5.73-7.83-5.73-13.55s6-5.89,6-5.89,24.65.15,26.88-.29,3.34-4.27,3.5-4.71,3.81-8.4,4.29-10.17-1.27-4.71-1.69-5.15a8.58,8.58,0,0,1-.76-1.69,6.41,6.41,0,0,1,.45-5.93c.46-.68.52-1.49-.7-2.25-1.77-1.09-3.77-3.85-5-5.81a6,6,0,0,1-1-4,12.32,12.32,0,0,0-.35-5.47c-.56-1.56-2.48-2.52-4.26-3.09a6.85,6.85,0,0,1-4.2-3.24c-3.36-6.87-14.29-8.2-24.89-7.73a6,6,0,0,1,.15,1.28v16.84c6.29,2,10.85,7.42,10.85,13.91,0,8.15-7.13,14.75-15.93,14.75s-15.93-6.6-15.93-14.75a14.54,14.54,0,0,1,7.8-12.62V101.59c-6,.93-10.21,2-10.21,2-13.14,2.73-12.58,25.12-12.43,28.33a4.62,4.62,0,0,1,0,.91c-.31,2.62-2.3,14.18-13.15,16.26C619.67,151.41,610,173.5,610,179s-5.08,38.5-5.09,38.58-10.5,34-7.32,38.88c2.63,4,3.41,18.78,3.61,23.8a6,6,0,0,1-.7,3c-2,3.74-7,14.56-5.61,24.71,1.37,9.81,9.86,20.51,13.48,24.69a6.16,6.16,0,0,1,1.51,4.32l-1.94,39.8a.52.52,0,0,1-.07.21c-1.07,1.64-16.16,24.64-24.75,28.47-8.84,3.95-14.39,18.48-14.47,18.7v0C565,449,544.72,463.6,542.16,465.35a1,1,0,0,1-.59.16c-1.36,0-3.36,1.16-5,2.25a6.3,6.3,0,0,0-2.91,5.34c.07,3.9.92,9.76,5.53,9.07s12.61,14.08,17.75,21.05c1.57,2.12,1.31,2.49,4,2,.93-.16,3.12-.43,4.41.44,1.78,1.2,2.62-.51,3.33.87,1.1,2.12-.34,1.92,2.19,2.12,8.09.62,12.1-8.81,8.1-9.93-15.22-4.27-10-15.8-10.46-23.56a6.34,6.34,0,0,1,2.59-5.39c8.33-6.44,29.14-29.45,29.14-29.45s11.77-12.81,11.29-18.11c-.38-4.26,16.07-14.13,22.56-17.84a6.43,6.43,0,0,0,3.14-4.18c1.51-7,5.89-24.73,10.88-23.19,6.21,1.91,11.3,14.58,11.3,14.58,2.54,1.18,2.86,21.21,1.27,29s6.63,25.9,6.84,26.35v0c.15.5,6.73,23,11,26.94,3.7,3.42.92,21.16.07,23.67a5.33,5.33,0,0,1-.52,1.11c-1.31,2.21-6.57,10.35-.56,11.52,6.84,1.32,24.64.14,27.28.31,2.16.14,7.14,0,8.9-.13l1.32,0,9.44.11a12.53,12.53,0,0,1,2.6.15c2.19.55,7.33-.22,11.6-.92a6.25,6.25,0,0,0,5.57-5.74S745.33,501.47,732,501.32Z" transform="translate(-47.76 -100.15)"/></g><g id="Laag_1" data-name="Laag 1"><text class="cls-2" transform="translate(0 411.69) scale(0.82 1)">WALK</text></g></svg>