<svg xmlns="http://www.w3.org/2000/svg" viewBox="0 0 1245.67 686.12"><defs><style>.cls-1{fill:#1ce0f4;}.cls-1,.cls-10,.cls-11,.cls-12,.cls-2,.cls-3,.cls-4,.cls-5,.cls-6,.cls-7,.cls-8,.cls-9{stroke:#000;}.cls-1,.cls-10,.cls-11,.cls-12,.cls-2,.cls-3,.cls-4,.cls-6,.cls-7,.cls-8,.cls-9{stroke-miterlimit:10;}.cls-2{fill:#ffa52e;}.cls-3,.cls-5{fill:none;}.cls-3{stroke-width:4px;}.cls-4{fill:#c62824;}.cls-5{stroke-miterlimit:20;stroke-width:13px;}.cls-6{fill:#b71c1c;}.cls-7{fill:#3b4a7a;}.cls-8{fill:#4b5ca3;}.cls-9{fill:#050505;}.cls-10{fill:#3a3a3a;}.cls-11{fill:#ff8500;}.cls-12{fill:#e8cfb8;}</style></defs><g id="Laag_5" data-name="Laag 5"><polygon class="cls-1" points="643.97 98.48 707.07 116.34 749.93 183.02 748.74 260.41 614.2 275.89 643.97 98.48"/><polygon class="cls-1" points="617.85 589.02 676.38 587.95 669.1 402.63 626.97 330.06 575.17 344.95 598.99 560.45 617.85 589.02"/><polygon class="cls-1" points="1017.83 116.34 1094.03 118.72 1093.62 550.88 1018.72 588.84 985.68 402.1 977.18 133.5 1017.83 116.34"/></g><g id="Laag_4" data-name="Laag 4"><polygon class="cls-2" points="359.4 425.91 359.4 98.48 643.97 98.48 705.88 200.88 798.75 116.34 1017.83 116.34 1017.83 589.03 807.09 589.03 807.09 391.38 723.74 459.25 605.87 361.62 617.18 589.03 376.07 589.03 346.3 589.03 346.3 474.73 358.21 474.73 359.4 425.91"/></g><g id="Laag_3" data-name="Laag 3"><path class="cls-3" d="M468.74,699.81c-49,31.47-114.3,18.89-147.43-27.07-38.41-53.3-13-127.86,25.57-152,40.85-25.5,82.7,14.22,173,18.06C589.46,541.8,657.25,512,697.76,493" transform="translate(-300.26 -149.27)"/><circle class="cls-4" cx="452.56" cy="297.91" r="75.32"/><path class="cls-5" d="M764.89,452.75C805.45,394.62,844,290,820.72,191.88c-3.43-14.45-14.27-33.61-32.27-35.86-22.64-2.84-33,18.55-40.67,69.3a213.82,213.82,0,0,0-2,22.33" transform="translate(-300.26 -149.27)"/><path class="cls-3" d="M659.58,457.77c-14.33.07-23.71,65.6-85.23,77.33" transform="translate(-300.26 -149.27)"/><circle cx="460.16" cy="303.16" r="20.8"/></g><g id="Laag_6" data-name="Laag 6"><path class="cls-6" d="M1180.28,719.62c-11.24-11-30.91-33.43-33-60.14a93.46,93.46,0,0,1-.21-10.17c1.06-11.54,6.71-20.26,12.92-47.43,11.27-49.36,7.82-83.77,5.93-97.41-5.32-38.38-17.39-50.66-21.18-54.22-2.28-2.13-21.83-20-39.81-14.4-14.19,4.42-13.2,19-31.34,43.2-6.43,8.58-33.12,44.16-57.6,39-11.88-2.52-23.07-14.61-22-24.57,1.34-12.65,21.3-11.17,38.12-30.49,18.66-21.42,7.56-38.67,23.72-50.82,17.73-13.34,37.59,2.56,59.29-11,7.57-4.73,4.25-7.64,22-32.18,11.41-15.76,17.24-23.68,22.87-25.41,18.43-5.69,32.16,19.32,48.28,13.55,10.73-3.85,7.73-16,22.87-34.73,2.55-3.15,26.66-32.3,45.74-25.41,8.85,3.19,14.46,13.35,15.25,22,1.32,14.48-10.74,25.38-22,35.58s-22.8,15.85-33.89,21.17c-19.9,9.55-21.37,6.37-28,11.86-18.79,15.69-15.77,49.15-14.4,64.38,2.3,25.47,8.61,21.83,11.86,50,3,25.69-1.79,33.14,2.54,63.53,2.11,14.82,3.2,12.74,5.93,30.5,2.35,15.24,5.2,34.52,3.39,58.45-1.65,21.67-2.83,34.92-12.71,47.43A58.48,58.48,0,0,1,1180.28,719.62Z" transform="translate(-300.26 -149.27)"/><path class="cls-6" d="M1233.64,494.3c-2.38-34.95,7.87-76.11,20.33-77.08,5.46-.42,10,7,19.48,24.56,36.69,68,36,82,44.9,83.86,20.69,4.33,54.46-65,138.07-195.67,13-20.31,35.37-54.5,56.75-50.82,13.27,2.28,21.08,18.28,24.57,25.41,9.81,20.09,11.83,51.09-3.39,63.53-13.85,11.32-29.84-2.66-49.13,11-8,5.64-12.24,13-19.48,25.41-8.69,14.9-8.28,20.13-14.4,33-7.93,16.7-18.28,27.51-39,49.13-17.8,18.59-20.74,18.34-29.65,30.49-3,4-6.71,9.62-20.33,39.81-25.21,55.9-25.74,66.47-24.56,75.39,1,7.21,2.66,10.5.85,16.1-6,18.59-40.43,29.92-52.52,19.48-8.41-7.26,1.33-18.68-5.93-42.35-5.42-17.71-12.54-16.81-23.72-40.66-6-12.76-8.5-22.91-13.55-43.2C1237.37,519.29,1234.58,508.06,1233.64,494.3Z" transform="translate(-300.26 -149.27)"/></g><g id="Laag_2" data-name="Laag 2"><polygon class="cls-7" points="580.28 673.69 547.51 685.41 547.51 438.14 578.15 442.86 580.28 673.69"/><rect class="cls-8" x="151.31" y="438.06" width="396.4" height="247.34"/></g><g id="Laag_7" data-name="Laag 7"><rect class="cls-9" x="233.9" y="517.49" width="232.62" height="88.29" rx="12.7"/><rect class="cls-10" x="254.3" y="527.79" width="187.83" height="66.71" rx="12.7"/><polygon class="cls-11" points="561.42 461.75 561.42 516.32 554.08 514.91 554.08 460.33 561.42 461.75"/><polygon class="cls-11" points="574.27 462.03 575.18 514.28 561.42 516.6 561.42 462.03 574.27 462.03"/><path class="cls-11" d="M865.31,609.22l8.92,1.95a.06.06,0,0,1,0,.12L861.68,611l-6.61-1.27c-.15,0-.87-.16-.72-.19Z" transform="translate(-300.26 -149.27)"/><rect class="cls-12" x="311.71" y="543.63" width="81.05" height="30.91" rx="3.28"/></g></svg>